<?xml version="1.0" encoding="UTF-8" standalone="no"?>
<svg width="512px" height="512px" viewBox="0 0 512 512" version="1.1" xmlns="http://www.w3.org/2000/svg" xmlns:xlink="http://www.w3.org/1999/xlink">
    <!-- Generator: Sketch 40.3 (33839) - http://www.bohemiancoding.com/sketch -->
    <title>avatar</title>
    <desc>Created with Sketch.</desc>
    <defs></defs>
    <g id="Page-1" stroke="none" stroke-width="1" fill="none" fill-rule="evenodd">
        <rect id="Rectangle-Copy" fill="#FFFFFF" x="0" y="0" width="512" height="512"></rect>
        <path d="M167.990024,178.509926 C167.990024,158.769926 151.748372,142.539259 131.995012,142.539259 C112.241652,142.539259 96,158.769926 96,178.509926 C96,198.249926 112.241652,214.480593 131.995012,214.480593 C151.748372,214.480593 167.990024,198.249926 167.990024,178.509926 Z M167.990024,334.675259 C167.990024,314.935259 151.748372,298.265926 131.995012,298.265926 C112.241652,298.265926 96,314.935259 96,334.675259 C96,353.976593 112.241652,370.645926 131.995012,370.645926 C151.748372,370.645926 167.990024,353.976593 167.990024,334.675259 Z M214.617708,415 L283.388666,415 C374.254122,415 448,341.304 448,250.5 C448,159.696 374.254122,86 283.388666,86 L214.617708,86 L214.617708,415 Z" id=":D" fill="#95ADA0"></path>
    </g>
</svg>